<svg xmlns="http://www.w3.org/2000/svg" viewBox="0 0 160 161">
  <rect x="0" y="0" width="55.94" height="161.03" rx="27.97" ry="27.97" fill="#6b5afc"/>
  <path fill="#6b5afc" d="M102.81,0h0C88.46,0,76.63,10.81,75.03,24.74h0c-.12,1.06-.19,2.14-.19,3.23h0c0,.99.05,1.97.15,2.94l-.15,25.04h27.97c15.45,0,27.97-12.52,27.97-27.97h0C130.78,12.52,118.26,0,102.81,0Z"/>
  <path fill="#6b5afc" d="M114.74,158.27h0c-20.48,0-37.34-15.43-39.63-35.29h0c-.17-1.51-.27-3.05-.27-4.61h0c0-1.41.08-2.81.22-4.19l-.22-35.71h39.9c22.04,0,39.9,17.87,39.9,39.9h0c0,22.04-17.87,39.9-39.9,39.9Z"/>
</svg>
